<?xml version="1.0" encoding="UTF-8" standalone="no"?>
<!DOCTYPE svg PUBLIC "-//W3C//DTD SVG 1.1//EN" "http://www.w3.org/Graphics/SVG/1.1/DTD/svg11.dtd">
<svg width="1100px" height="500px" viewBox="0 0 1100 500" version="1.1" xmlns="http://www.w3.org/2000/svg" xmlns:xlink="http://www.w3.org/1999/xlink" xml:space="preserve" xmlns:serif="http://www.serif.com/" style="fill-rule:evenodd;clip-rule:evenodd;stroke-linejoin:round;stroke-miterlimit:2;">
    <path d="M477.9,98.3C492.5,75.5 509.7,48.5 515.3,39.7C451.4,44.5 392.3,61.1 342.3,86.4C350,100.8 360,118.9 367.7,132.9C394.2,123 423,116.2 453.4,113.3C463.4,112.3 472.4,106.8 477.9,98.3Z" style="fill:rgb(171,208,56);fill-rule:nonzero;"/>
    <path d="M711.2,190.5C725.1,197.1 738.6,199.1 757.5,199.1C792.1,199.1 857.4,199.2 893.3,199.3C861.7,146.8 807.5,103.1 739.6,74.5C715.5,90.6 646.5,136.8 635.5,144.1C679.1,165.4 697.5,184 711.2,190.5Z" style="fill:rgb(238,51,45);fill-rule:nonzero;"/>
    <path d="M528.5,38.9C526.6,44.5 509.6,95.5 504.2,112C531.6,113.2 558,117.4 582.7,124.3C597.4,128.4 613.2,126.9 626.8,119.9L726.4,69.1C674.9,49.4 616.3,38.2 554,38.2C545.4,38.2 536.9,38.5 528.5,38.9Z" style="fill:rgb(242,186,26);fill-rule:nonzero;"/>
    <path d="M205.6,212.9L237.9,213C246.6,213 254.9,209.4 260.8,203C278.3,183.9 299.8,167.1 324.5,153.2C333.3,148.3 338.2,138.4 336.6,128.5C334.2,112.9 331.6,96.8 330.9,92.5C274.6,123 230.8,164.6 205.6,212.9Z" style="fill:rgb(61,174,43);fill-rule:nonzero;"/>
    <g>
        <path d="M987.9,239.5L980.5,239.5L980.5,258.8L974,258.8L974,239.5L966.5,239.5L966.5,233.9L987.9,233.9L987.9,239.5Z" style="fill:white;fill-rule:nonzero;"/>
        <path d="M1018.6,233.9L1018.6,258.8L1012.5,258.8L1012.5,239.9L1012.4,239.9L1007.2,258.8L1002.2,258.8L997,239.9L996.9,239.9L996.9,258.8L990.8,258.8L990.8,233.9L1000.4,233.9L1004.7,250.5L1009,233.9" style="fill:white;fill-rule:nonzero;"/>
    </g>
    <g>
        <path d="M216.7,260.3C208.8,251.1 199.1,243.8 187.6,238.5C176.2,233.1 163.2,230.4 148.8,230.4C134.4,230.4 121.5,233.1 110,238.5C98.6,243.9 88.9,251.2 80.9,260.3C73,269.5 66.9,280.2 62.7,292.4C58.5,304.6 56.3,317.6 56.3,331.2C56.3,345 58.4,358.1 62.7,370.3C66.9,382.5 73,393.2 80.9,402.4C88.8,411.6 98.5,418.8 110,424.1C121.4,429.4 134.4,432.1 148.8,432.1C163.2,432.1 176.1,429.4 187.6,424.1C199,418.8 208.7,411.6 216.7,402.4C224.6,393.2 230.7,382.5 234.9,370.3C239.1,358.1 241.3,345 241.3,331.2C241.3,317.5 239.2,304.6 234.9,292.4C230.7,280.2 224.6,269.5 216.7,260.3ZM204.1,358.2C201.8,367 198.4,374.9 193.7,381.8C189,388.7 182.9,394.3 175.5,398.4C168,402.5 159.1,404.6 148.9,404.6C138.6,404.6 129.8,402.5 122.3,398.4C114.8,394.3 108.7,388.7 104.1,381.8C99.4,374.9 95.9,367 93.7,358.2C91.4,349.4 90.3,340.4 90.3,331.2C90.3,322 91.4,313 93.7,304.2C96,295.4 99.4,287.5 104.1,280.6C108.8,273.7 114.9,268.2 122.3,264C129.8,259.9 138.7,257.8 148.9,257.8C159.2,257.8 168,259.9 175.5,264C183,268.1 189.1,273.7 193.7,280.6C198.4,287.5 201.9,295.4 204.1,304.2C206.4,313 207.5,322 207.5,331.2C207.5,340.4 206.3,349.4 204.1,358.2Z" style="fill:white;fill-rule:nonzero;"/>
        <path d="M384.5,306C379.1,299.3 372.3,294 364.1,290.1C355.9,286.2 346.3,284.3 335.3,284.3C326.3,284.3 317.9,286.1 310.2,289.6C302.4,293.1 296.4,298.9 292.1,307L291.6,307L291.6,288L262.4,288L262.4,479L293.2,479L293.2,409.4L293.7,409.4C296,413.2 299,416.5 302.5,419.2C306,422 309.8,424.3 314,426.1C318.1,427.9 322.5,429.2 327,430C331.5,430.8 336,431.2 340.5,431.2C350.8,431.2 359.7,429.2 367.3,425.1C374.9,421.1 381.1,415.7 386.1,408.9C391.1,402.2 394.8,394.4 397.2,385.6C399.6,376.8 400.8,367.7 400.8,358.3C400.8,348 399.4,338.4 396.7,329.4C394,320.6 389.9,312.7 384.5,306ZM367.9,375.8C366.5,381.6 364.3,386.9 361.1,391.5C357.9,396.1 353.9,399.8 349.1,402.7C344.2,405.6 338.3,407 331.3,407C325,407 319.4,405.7 314.7,403.2C309.9,400.7 305.8,397.3 302.4,392.9C299,388.6 296.4,383.4 294.7,377.4C293,371.4 292.1,364.9 292.1,357.8C292.1,342.9 295.4,330.9 302,321.9C308.6,312.9 318.4,308.4 331.3,308.4C337.6,308.4 343.2,309.8 348.1,312.6C353,315.4 357,319.1 360.3,323.7C363.6,328.3 366,333.5 367.6,339.5C369.2,345.4 370,351.6 370,357.8C369.9,364 369.3,370 367.9,375.8Z" style="fill:white;fill-rule:nonzero;"/>
        <path d="M531.8,309.3C526,301.7 518.8,295.7 510,291.1C501.3,286.5 491.4,284.2 480.4,284.2C469.9,284.2 460.6,286.2 452.3,290.1C444,294.1 436.9,299.4 431.1,306.2C425.2,312.9 420.7,320.8 417.6,329.7C414.4,338.6 412.9,348 412.9,357.9C412.9,368.7 414.4,378.6 417.4,387.6C420.4,396.6 424.8,404.3 430.6,410.8C436.5,417.3 443.6,422.3 452.1,425.9C460.6,429.5 470.3,431.3 481.3,431.3C488.9,431.3 496.1,430.3 503.1,428.2C510,426.1 516.3,423.1 521.9,419C527.5,415 532.3,410 536.2,404C540.2,398.1 543,391.3 544.6,383.8L515.4,383.8C512.7,391.5 508.6,397.3 503.1,401.2C497.6,405.1 490.3,407 481.3,407C474.8,407 469.2,405.9 464.5,403.6C459.8,401.4 455.9,398.3 452.9,394.6C449.8,390.8 447.5,386.4 446,381.4C444.5,376.4 443.7,371.1 443.7,365.7L546.4,365.7C547.7,355.3 547,345.2 544.4,335.3C541.7,325.6 537.5,316.9 531.8,309.3ZM443.6,345.5C443.8,340.3 444.8,335.4 446.7,330.9C448.6,326.4 451.1,322.5 454.3,319.2C457.5,315.9 461.2,313.3 465.7,311.4C470.1,309.5 475,308.6 480.4,308.6C485.6,308.6 490.4,309.6 494.6,311.7C498.8,313.8 502.4,316.5 505.4,319.8C508.4,323.1 510.7,327 512.4,331.5C514.1,336 515.1,340.7 515.5,345.5L443.6,345.5Z" style="fill:white;fill-rule:nonzero;"/>
        <path d="M673.3,296.1C664.5,288.2 652.4,284.2 637.1,284.2C627.9,284.2 619.5,286.4 612,290.8C604.4,295.2 598.3,301.3 593.6,309L593.1,308.5L593.1,288L563.9,288L563.9,427.5L594.7,427.5L594.7,345.2C594.7,340.2 595.5,335.4 597.1,330.9C598.7,326.4 601,322.5 603.9,319.2C606.8,315.9 610.3,313.3 614.4,311.4C618.5,309.5 623.2,308.6 628.5,308.6C637.7,308.6 644.5,311.1 648.8,316C653.1,320.9 655.5,328.9 655.8,339.9L655.8,427.6L686.6,427.6L686.6,331.8C686.6,315.9 682.1,304 673.3,296.1Z" style="fill:white;fill-rule:nonzero;"/>
        <path d="M840.7,352.1C839.2,364.1 834.9,374 828.1,381.5C821.4,388.8 811.9,392.6 799.9,392.6C790.9,392.6 783.3,390.9 777.1,387.4C770.9,384 765.8,379.4 761.9,373.7C758,368 755.1,361.4 753.3,354.1C751.5,346.8 750.6,339.2 750.6,331.5C750.6,323.4 751.5,315.5 753.3,307.9C755.1,300.4 758,293.7 761.9,287.8C765.8,282 770.8,277.4 777.1,273.9C783.3,270.5 791,268.7 799.9,268.7C804.7,268.7 809.5,269.5 813.9,271.1C818.3,272.7 822.4,274.9 825.9,277.8C829.4,280.6 832.4,284 834.7,287.7C837,291.4 838.5,295.5 839.2,300L839.5,301.9L884.3,301.9L884,299.4C882.7,288.2 879.6,278.1 874.7,269.4C869.8,260.7 863.5,253.3 855.9,247.4C848.4,241.5 839.8,237 830.3,233.9C820.8,230.8 810.6,229.3 800,229.3C785.1,229.3 771.5,231.9 759.8,237.2C748.1,242.4 738,249.8 729.8,259C721.7,268.2 715.4,279.1 711,291.5C706.7,303.9 704.5,317.3 704.5,331.4C704.5,345.2 706.7,358.4 711,370.6C715.3,382.8 721.6,393.6 729.8,402.6C737.9,411.6 748,418.9 759.8,424.1C771.5,429.3 785.1,432 800,432C811.9,432 823,430.1 832.9,426.4C842.9,422.7 851.7,417.3 859.1,410.4C866.5,403.5 872.6,395.1 877.1,385.3C881.6,375.6 884.4,364.5 885.5,352.5L885.7,350.1L841,350.1L840.7,352.1Z" style="fill:white;fill-rule:nonzero;"/>
        <path d="M948.6,388.1L948.6,233.9L902.4,233.9L902.4,427.5L1040.9,427.5L1040.9,388.1L948.6,388.1Z" style="fill:white;fill-rule:nonzero;"/>
    </g>
</svg>
